SplineFontDB: 3.0
FontName: Jannon
FullName: Jannon
FamilyName: Jannon
Weight: Regular
Copyright: Created by trashman with FontForge 2.0 (http://fontforge.sf.net)
UComments: "2010-9-5: Created." 
Version: 001.000
ItalicAngle: 0
UnderlinePosition: -100
UnderlineWidth: 50
Ascent: 700
Descent: 300
LayerCount: 2
Layer: 0 0 "Back"  1
Layer: 1 0 "Fore"  0
NeedsXUIDChange: 1
XUID: [1021 658 797806517 9253483]
FSType: 0
OS2Version: 0
OS2_WeightWidthSlopeOnly: 0
OS2_UseTypoMetrics: 1
CreationTime: 1283672823
ModificationTime: 1283844265
OS2TypoAscent: 0
OS2TypoAOffset: 1
OS2TypoDescent: 0
OS2TypoDOffset: 1
OS2TypoLinegap: 90
OS2WinAscent: 0
OS2WinAOffset: 1
OS2WinDescent: 0
OS2WinDOffset: 1
HheadAscent: 0
HheadAOffset: 1
HheadDescent: 0
HheadDOffset: 1
MarkAttachClasses: 1
DEI: 91125
Encoding: UnicodeBmp
UnicodeInterp: none
NameList: Adobe Glyph List
DisplaySize: -48
AntiAlias: 1
FitToEm: 1
WinInfo: 64 16 4
BeginPrivate: 8
BlueValues 15 [-25 0 395 417]
StdHW 4 [26]
StdVW 4 [65]
StemSnapH 22 [26 30 36 42 47 55 62]
StemSnapV 35 [24 31 37 52 57 65 69 73 80 92 150]
BlueFuzz 1 0
BlueScale 8 0.039625
BlueShift 1 7
EndPrivate
BeginChars: 65536 55

StartChar: a
Encoding: 97 97 0
Width: 426
VWidth: 0
Flags: W
HStem: -15 53<73.5 171.19> -8 50<293.975 375.086> 372 36<162.64 270.5>
VStem: 35 68<18 108.83> 249 65<73.0061 192.964> 255 69<219.102 361.307>
LayerCount: 2
Fore
SplineSet
48 289 m 0xb4
 48 348 173 408 245 408 c 0
 296 408 324 384 324 326 c 0xb4
 324 257 314 166 314 98 c 0
 314 64 318 42 343 42 c 0
 370 42 380 58 390 72 c 0
 394 78 400 86 406 86 c 0
 411 86 415 81 415 70 c 0
 415 52 376 -8 312 -8 c 0x78
 275.94921875 -8 256 22 242 64 c 1
 209 29 163.046875 -15 88 -15 c 0
 59 -15 35 -4 35 40 c 0
 35 141 154 196 234 217 c 0
 247 220 252 224 253 243 c 0
 254 262 255 280 255 299 c 0
 255 347 238 372 196 372 c 0
 161 372 135 346 123 315 c 0
 113 290 95 265 74 265 c 0
 55 265 48 276 48 289 c 0xb4
103 81 m 0
 103 44 122 38 144 38 c 0
 188 38 239 73 244 98 c 0
 246 109 249 129 249 163 c 0xb8
 249 185 246 196 238 196 c 0
 214 196 153 163 132 141 c 0
 117 125 103 103 103 81 c 0
EndSplineSet
Validated: 1
EndChar

StartChar: b
Encoding: 98 98 1
Width: 494
VWidth: 0
Flags: W
HStem: -12 33<190.341 321.191> 361 47<195.865 306.949>
VStem: 81 33<-45.9961 5.14725> 84 65<51.4326 351.083 360 602.061> 397 66<115.168 269.976>
LayerCount: 2
Fore
SplineSet
146 637 m 2xd8
 149 360 l 1xd8
 150 361 220 408 274 408 c 0
 391 408 463 321 463 200 c 0
 463 169 454 141 441 115 c 0
 404 39 323 -12 244 -12 c 0
 201 -12 170 7 139 7 c 0
 124 7 117 -7 114 -20 c 0
 107 -46 102 -48 98 -48 c 2
 96 -48 l 2
 82 -48 81 -39 81 -25 c 0xe8
 81 -11 84 29 84 85 c 2
 78 566 l 2
 78 594 68 600 60 603 c 0
 50 606 39 609 36 610 c 0
 27 612 18 616 18 624 c 0
 18 630 21 637 33 640 c 0
 67 648 92 659 124 674 c 0
 128 676 131 676 133 676 c 0
 146 676 146 655 146 637 c 2xd8
149 120 m 2
 149 89 156 65 172 50 c 0
 192 32 224 21 268 21 c 0
 304 21 353 42 379 96 c 0
 391 120 397 151 397 190 c 0
 397 283 322 361 226 361 c 0
 201 361 149 354 149 325 c 2
 149 120 l 2
EndSplineSet
Validated: 1
EndChar

StartChar: c
Encoding: 99 99 2
Width: 411
VWidth: 0
Flags: W
HStem: -25 57<178.176 307.325> 381 36<173.678 286.024>
VStem: 36 64<116.151 284.708>
LayerCount: 2
Fore
SplineSet
100 205 m 0
 100 105 169 32 250 32 c 0
 283 32 331 46 357 73 c 0
 358 74 369 91 377 91 c 0
 381 91 385 88 385 83 c 0
 385 66 372 49 368 45 c 0
 329 -2 274 -25 220 -25 c 0
 124 -25 36 46 36 178 c 0
 36 306 117 417 257 417 c 0
 301 417 365 405 365 356 c 0
 365 339 351 331 341 331 c 0
 300 331 295 381 239 381 c 0
 143 381 100 292 100 205 c 0
EndSplineSet
Validated: 1
EndChar

StartChar: d
Encoding: 100 100 3
Width: 493
VWidth: 0
Flags: W
HStem: -25 21G<334.5 341.5> -8 43<174.151 302.992> 374 24<173.617 275.387> 650 27<244.093 311.886>
VStem: 27 62<118.394 280.381> 317 68<381 646.273> 326 62<39.566 336.176>
LayerCount: 2
Fore
SplineSet
466 22 m 0x7a
 466 15 460 13 458 12 c 0
 429 4 405 -2 376 -12 c 0
 361 -17 344 -25 339 -25 c 0
 330 -25 326 -16 326 2 c 2
 326 25 l 1xba
 293 6 248 -8 211 -8 c 0
 90 -8 27 74 27 188 c 0
 27 296 106 398 236 398 c 0
 271 398 317 381 317 381 c 1
 314 629 l 2
 314 637 310 645 298 646 c 0
 272 649 271 649 263 650 c 0
 251 651 244 654 244 662 c 0
 244 673 252 676 264 677 c 0
 298 680 375 686 378 686 c 0
 385 686 386 682 386 675 c 0
 386 553 385 419 385 286 c 0x7c
 385 200 385 118 388 42 c 0
 388 31 397 28 406 28 c 0
 422 28 443 37 452 37 c 0
 460 37 466 32 466 22 c 0x7a
258 35 m 0x7a
 321 35 326 43 326 101 c 0
 326 156 324 224 322 278 c 0
 320 337 283 374 227 374 c 0
 144 374 89 303 89 206 c 0
 89 98 167 35 258 35 c 0x7a
EndSplineSet
Validated: 1
EndChar

StartChar: e
Encoding: 101 101 4
Width: 424
VWidth: 0
Flags: W
HStem: -25 63<162.431 293.613> 229 23<97.3754 246.297> 238 26<168.333 297.119> 379 29<172.775 271.679>
VStem: 30 57<113.721 256.752> 312 70<282.467 322.989>
LayerCount: 2
Fore
SplineSet
30 184 m 0xdc
 30 294 103 408 230 408 c 0
 324 408 382 305 382 258 c 0
 382 238 364 238 362 238 c 2xbc
 113 229 l 2
 95 228 87 230 87 209 c 0
 87 108 142 38 250 38 c 0
 288 38 313 50 333 66 c 0
 338 70 352 83 359 83 c 0
 365 83 369 80 369 73 c 0
 369 54 338 17 292 -4 c 0
 265 -17 234 -25 203 -25 c 0
 93 -25 30 72 30 184 c 0xdc
312 300 m 1
 312 300 312 314 306 325 c 0
 290 357 265 379 216 379 c 0
 172 379 126 332 106 293 c 0
 102 286 97 268 97 259 c 0
 97 252 100 252 111 252 c 0xdc
 126 252 216 261 254 264 c 0
 270 266 292 268 302 282 c 0
 309 292 312 300 312 300 c 1
EndSplineSet
Validated: 1
EndChar

StartChar: f
Encoding: 102 102 5
Width: 326
VWidth: 0
Flags: W
HStem: -3 30<33.046 120.342 198.412 282.732> 352 39<190 283.328> 358 40<211.134 301> 652 41<235.356 308.292>
VStem: 125 65<33.7773 339.947 391.003 538.375>
LayerCount: 2
Fore
SplineSet
192 68 m 2xd8
 192 40 202 32 230 31 c 2
 251 30 l 2
 268 30 283 29 283 16 c 0
 283 4 278 -3 267 -3 c 0
 244 -3 215 0 157 0 c 0
 119 0 76 -3 52 -3 c 0
 35 -3 33 3 33 14 c 0
 33 23 40 26 53 27 c 0
 102 29 123 24 123 58 c 2
 125 324 l 2
 125 339 127 343 112 341 c 0
 91 339 75 333 67 333 c 0
 59 333 55 340 55 350 c 0
 55 359 88 368 110 373 c 0
 126 376 128 379 128 387 c 2
 128 398 l 2xb8
 128 499 153 589 203 645 c 0
 226 671 252 693 300 693 c 0
 321 693 372 689 372 664 c 0
 372 653 352 623 331 623 c 0
 307 623 296 652 267 652 c 0
 234 652 211 592 204 558 c 0
 196 518 190 469 190 415 c 2
 190 405 l 2
 190 395 191 391 200 391 c 0xd8
 225 392 270 397 289 398 c 0
 297 398 301 398 301 383 c 2
 301 374 l 2
 301 364 297 359 284 358 c 0xb8
 270 357 234 354 210 352 c 0
 192 350 190 350 190 339 c 2
 190 181 l 2
 190 158 192 68 192 68 c 2xd8
EndSplineSet
Validated: 1
EndChar

StartChar: g
Encoding: 103 103 6
Width: 473
VWidth: 0
Flags: W
HStem: -264 31<99.1016 250.987> -33 62<105.556 336.556> 118 22<170.451 244.044> 332 56<350.257 429.843> 386 24<165.864 245.336>
VStem: -4 54<-199.238 -95.6627> 36 59<37.8557 97.3628> 58 65<178.72 342.536> 292 63<189.999 331.828> 360 52<-154.77 -56.6751>
LayerCount: 2
Fore
SplineSet
207 140 m 0xe9c0
 267 140 292 203 292 274 c 0
 292 351 246 386 206 386 c 0
 158 386 123 347 123 270 c 0
 123 190 156 140 207 140 c 0xe9c0
360 -102 m 0
 360 -78 349 -33 244 -33 c 0
 212 -33 180 -33 146 -37 c 0
 114 -41 50 -83 50 -148 c 0xe4c0
 50 -216 125 -233 182 -233 c 0
 255 -233 360 -188 360 -102 c 0
58 271 m 0xf1c0
 58 346 120 410 210 410 c 0
 251 410 280 399 306 386 c 1xe9c0
 342 387 378 388 405 388 c 0
 429 388 430 372 430 361 c 0
 430 342 429 332 412 332 c 2
 354 332 l 2
 345 332 347 325 349 316 c 0
 352 304 355 285 355 273 c 0
 355 217 331 177 295 143 c 0
 274 124 236 118 194 118 c 2
 147 118 l 2
 135 118 95 80 95 66 c 0xf2c0
 95 54 110 41 124 33 c 0
 137 25 147 24 160 24 c 0
 196 24 252 29 283 29 c 0
 350 29 412 -2 412 -82 c 0
 412 -195 273 -264 154 -264 c 0
 73 -264 -4 -243 -4 -157 c 0xf4c0
 -4 -92 54 -60 93 -41 c 0
 102 -37 113 -31 113 -28 c 0
 113 -24 101 -17 92 -10 c 0
 62 14 36 48 36 74 c 0xf2c0
 36 92 37 92 60 99 c 0
 80 106 122 118 122 126 c 0
 122 131 112 141 108 145 c 0
 93 160 78 176 69 198 c 0
 59 223 58 250 58 271 c 0xf1c0
EndSplineSet
Validated: 1
EndChar

StartChar: h
Encoding: 104 104 7
Width: 519
VWidth: 0
Flags: W
HStem: -3 28<10.0579 81.788 157.876 230.658 287.034 352.722 424.366 506.994> 368 44<221.63 336.825> 602 27<30.1821 82.5211>
VStem: 87 69<29 334.166 344.007 596.903> 365 63<36.2849 337.972>
LayerCount: 2
Fore
SplineSet
196 374 m 0
 225 394 256 412 304 412 c 0
 389 412 428 366 428 275 c 0
 428 224 422 109 422 58 c 0
 422 26 433 25 457 25 c 2
 483 25 l 2
 500 25 507 24 507 11 c 0
 507 -2 499 -3 493 -3 c 0
 489 -3 426 0 385 0 c 0
 360 0 330 -4 310 -4 c 0
 292 -4 287 0 287 10 c 0
 287 18 291 24 311 25 c 2
 327 26 l 2
 345 27 347 28 353 36 c 0
 358 42 359 53 359 65 c 0
 359 131 365 194 365 259 c 0
 365 322 343 368 274 368 c 0
 229 368 187 347 168 325 c 0
 156 312 155 309 155 292 c 2
 154 58 l 2
 154 30 166 31 190 27 c 0
 212 23 234 25 234 12 c 2
 234 5 l 2
 234 -1 232 -2 214 -2 c 0
 184 -2 196 0 120 0 c 0
 83 0 36 -2 32 -2 c 0
 22 -2 10 -1 10 10 c 0
 10 26 30 23 46 24 c 0
 60 25 85 27 85 52 c 0
 86 134 87 215 87 297 c 0
 87 353 91 560 91 565 c 0
 91 588 91 595 83 597 c 0
 73 599 49 602 46 602 c 0
 34 603 30 609 30 614 c 0
 30 620 37 625 48 629 c 0
 84 641 141 664 149 664 c 0
 159 664 161 659 161 653 c 0
 161 551 156 557 156 420 c 2
 156 384 l 2
 156 354 156 344 161 344 c 0
 166 344 174 359 196 374 c 0
EndSplineSet
Validated: 1
EndChar

StartChar: i
Encoding: 105 105 8
Width: 303
VWidth: 0
Flags: W
HStem: -1 28<38.3563 107.169 189.015 257.905> 580 82<124.877 197.123>
VStem: 115 66<31.5168 338.079> 120 82<584.877 657.123>
LayerCount: 2
Fore
SplineSet
120 621 m 0xd0
 120 644 138 662 161 662 c 0
 184 662 202 644 202 621 c 0
 202 598 184 580 161 580 c 0
 138 580 120 598 120 621 c 0xd0
181 434 m 0xe0
 190 434 192 422 192 416 c 0
 189 376 188 339 187 306 c 0
 184 212 181 147 181 87 c 0
 181 33 190 28 242 27 c 0
 255 27 258 20 258 15 c 0
 258 5 253 -1 235 -1 c 0
 222 -1 177 0 152 0 c 0
 117 0 88 -2 64 -2 c 0
 51 -2 38 -1 38 9 c 0
 38 23 48 24 66 24 c 0
 101 24 114 34 115 83 c 2
 119 308 l 2
 119 323 101 339 82 342 c 0
 73 344 61 343 61 354 c 0
 61 362 63 367 80 370 c 0
 120 377 136 395 154 415 c 0
 163 426 174 434 181 434 c 0xe0
EndSplineSet
Validated: 1
EndChar

StartChar: j
Encoding: 106 106 9
Width: 284
VWidth: 0
Flags: W
HStem: 566 82<80.8767 153.123>
VStem: 76 82<570.877 643.123> 124 71<-99.4223 420>
LayerCount: 2
Fore
SplineSet
76 607 m 0xc0
 76 630 94 648 117 648 c 0
 140 648 158 630 158 607 c 0
 158 584 140 566 117 566 c 0
 94 566 76 584 76 607 c 0xc0
179 440 m 0
 191 440 195 428 195 420 c 0
 195 296 192 91 189 -10 c 0
 185 -138 114 -206 78 -230 c 0
 73 -234 67 -236 61 -236 c 0
 58 -236 49 -229 49 -224 c 0
 49 -216 52 -214 57 -208 c 0
 77 -188 121 -158 121 -27 c 0
 121 50 124 227 124 304 c 0xa0
 124 360 94 351 78 358 c 0
 72 361 68 364 68 370 c 0
 68 376 72 382 81 385 c 0
 112 397 135 409 154 425 c 0
 165 434 172 440 179 440 c 0
EndSplineSet
Validated: 1
EndChar

StartChar: k
Encoding: 107 107 10
Width: 560
VWidth: 0
Flags: W
HStem: 0 30<48.0387 114.745 285.159 333.988 445.816 528.968> 369 25<318.108 360.751> 373 32<438.908 518.974>
VStem: 119 69<30.2188 179 203 384.2> 124 74<412.077 612.919>
DStem2: 185 203 202 190 0.813983 0.580888<0 7.99129 78.3607 213.193> 262 230 202 190 0.698324 -0.715782<0 183.312>
LayerCount: 2
Fore
SplineSet
124 578 m 0xa8
 124 606 114.377929688 611.32421875 106 613 c 0
 86 617 65 614 65 629 c 0
 65 636 69 641 77 643 c 0
 112 652 176 672 187 672 c 0
 196 672 198 666 198 656 c 2
 185 203 l 1
 241 243 288 281 344 329 c 0
 352 336 362 346 362 353 c 0
 362 368 347 369 333 369 c 0
 324 369 318 371 318 380 c 0
 318 387 324 394 330 394 c 0xc8
 388 397 458 405 497 405 c 0
 510 405 519 401 519 390 c 0
 519 377 511 375 499 373 c 0
 482 370 467 368 452 363 c 0
 433 356 415 343 406 336 c 0
 325 272 336 284 262 230 c 1
 422 66 l 2
 440 48 456 30 498 30 c 2
 508 30 l 2
 520 30 529 27 529 14 c 0
 529 1 518 -1 506 -1 c 0
 471 -1 447 0 408 0 c 0
 365 0 342 -2 301 -2 c 0
 291 -2 285 4 285 13 c 0
 285 23 294 26 300 27 c 0
 318 29 334 28 334 44 c 0
 334 47 333 54 330 57 c 0
 271 124 202 190 202 190 c 1
 186 179 l 1
 188 70 l 1
 188 12 242 36 242 13 c 0
 242 1 233 -2 222 -2 c 0
 199 -2 205 0 147 0 c 0
 109 0 90 -2 66 -2 c 0
 49 -2 48 6 48 14 c 0
 48 25 60 26 70 26 c 0
 103 26 118 34 119 66 c 0xb0
 121 165 122 422 124 578 c 0xa8
EndSplineSet
Validated: 524289
EndChar

StartChar: l
Encoding: 108 108 11
Width: 326
VWidth: 0
Flags: W
HStem: -3 36<43.1066 132.476 207.375 288.968>
VStem: 133 73<34.204 612.177> 138 75<68 610.832>
LayerCount: 2
Fore
SplineSet
138 578 m 6xa0
 138 606 134 605 126 608 c 4
 116 611 101 615 98 616 c 4
 89 618 83 622 83 629 c 4
 83 636 87 641 95 643 c 4
 130 652 191 670 202 670 c 4
 211 670 213 664 213 654 c 6xa0
 206 68 l 6
 206 40 212 34 240 33 c 6
 261 32 l 6
 278 32 289 25 289 16 c 4
 289 4 284 -3 273 -3 c 4
 250 -3 225 0 167 0 c 4
 129 0 86 -6 62 -6 c 4
 45 -6 43 3 43 14 c 4
 43 30 80 27 96 29 c 4
 122 33 132 30 133 58 c 4xc0
 135 153 138 217 138 395 c 6
 138 578 l 6xa0
EndSplineSet
Validated: 1
EndChar

StartChar: m
Encoding: 109 109 12
Width: 776
VWidth: 0
Flags: W
HStem: 0 26<36.1387 107.684 183.756 251.948 299.046 356.269 438.17 498.719 535.336 604.632 685.143 748.6> 377 42<247.716 348.738 486.026 589.491>
VStem: 112 67<29.7556 342.745> 363 69<28.2843 350.741> 613 65<28.6797 354.26>
LayerCount: 2
Fore
SplineSet
327 419 m 0
 376 419 414 397 428 359 c 1
 448 377 502 417 556 417 c 0
 654 417 683 370 683 279 c 0
 683 204 678 140 678 63 c 0
 678 36 695 28 710 26 c 0
 730 23 749 24 749 10 c 0
 749 0 733 -2 727 -2 c 0
 724 -2 679 0 646 0 c 0
 613 0 600 -1 567 -1 c 0
 554 -1 535 0 535 10 c 0
 535 19 542 22 555 22 c 0
 600 24 613 32 613 82 c 2
 613 292 l 2
 613 336 590 378 534 378 c 0
 484 378 433 345 433 321 c 0
 433 254 432 182 432 113 c 2
 432 61 l 2
 432 34 449 28 464 26 c 0
 484 23 499 24 499 10 c 0
 499 0 483 -2 477 -2 c 0
 464 -2 439 0 398 0 c 2
 319 0 l 2
 306 0 299 2 299 12 c 0
 299 24 309 26 322 26 c 2
 337 27 l 2
 360 29 363 52 363 82 c 2
 363 292 l 2
 363 333 359 377 296 377 c 0
 235 377 182 351 182 294 c 0
 181 219 179 144 179 69 c 0
 179 28 189 32 212 28 c 0
 234 24 252 25 252 12 c 0
 252 8 248 0 225 0 c 2
 146 0 l 2
 109 0 62 -2 58 -2 c 0
 48 -2 36 0 36 11 c 0
 36 23 48 23 64 24 c 0
 78 25 112 27 112 52 c 0
 113 134 114 247 114 329 c 0
 114 379 51 350 51 375 c 0
 51 387 64 387 90 390 c 0
 118 393 142 405 161 436 c 0
 165 443 173 450 181 450 c 0
 187 450 191 446 191 435 c 0
 191 427 186 407 186 387 c 0
 186 374 188 369 192 369 c 0
 197 369 204 375 213 380 c 0
 242 396 281 419 327 419 c 0
EndSplineSet
Validated: 1
EndChar

StartChar: n
Encoding: 110 110 13
Width: 506
VWidth: 0
Flags: W
HStem: -2 28<26.0406 84.1704 156.385 229.269 279.093 345.715 421.617 481.936> 368 49<214.33 339.732>
VStem: 89.0142 64.9858<29.425 327.304> 125 31<384.841 427.664> 356 64<35.5785 351.357>
LayerCount: 2
Fore
SplineSet
302 26 m 2xd8
 311 26 l 2
 329 26 340 27 346 35 c 0
 355 47 356 81 356 112 c 2
 356 269 l 2
 356 338 347 368 274 368 c 0
 229 368 185 358 166 336 c 0
 154 323 154 309 154 292 c 2
 153 58 l 2
 153 30 166 31 190 27 c 0
 212 23 234 25 234 12 c 2
 234 5 l 2
 234 -1 232 -2 214 -2 c 0
 184 -2 196 0 120 0 c 0
 83 0 46 -2 42 -2 c 0
 32 -2 26 0 26 11 c 0
 26 27 40 25 56 26 c 0
 70 27 86 27 86 52 c 0
 87.0057503912 133.801031819 89.0142403628 215.650247875 89.0142403628 297.462708563 c 0xe8
 89.0142403628 347.376689342 38 315.238095238 38 340 c 0
 38 352 46 353 64 358 c 0
 73 361 86 365 95 371 c 0
 106 378 118 395 125 409 c 0
 130 419 132 428 144 428 c 0
 150 428 156 425 156 416 c 0
 156 407 152 387 152 366 c 0
 152 358 154 356 157 356 c 0
 161 356 167 362 174 368 c 0
 204 394 247 417 298 417 c 0
 362 417 426 400 426 312 c 0
 426 228 420 142 420 58 c 0
 420 31 425 32 440 30 c 0
 460 27 482 32 482 11 c 0
 482 -2 474 -2 468 -2 c 0
 464 -2 426 0 385 0 c 0
 352 0 317 -3 297 -3 c 0
 284 -3 279 0 279 10 c 0
 279 25 289 26 302 26 c 2xd8
EndSplineSet
Validated: 524289
EndChar

StartChar: o
Encoding: 111 111 14
Width: 510
VWidth: 0
Flags: W
HStem: -17 28<197.218 313.353> 400 26<193.929 298.132>
VStem: 39 72<107.953 301.294> 392 79<101.835 307.207>
LayerCount: 2
Fore
SplineSet
471 202 m 0
 471 61 368 -17 247 -17 c 0
 136 -17 39 52 39 197 c 0
 39 334 129 426 257 426 c 0
 382 426 471 354 471 202 c 0
111 230 m 0
 111 121 157 11 248 11 c 0
 379 11 392 128 392 198 c 0
 392 331 316 400 249 400 c 0
 152 400 111 311 111 230 c 0
EndSplineSet
Validated: 1
EndChar

StartChar: p
Encoding: 112 112 15
Width: 536
VWidth: 0
Flags: W
HStem: -270 32<23.034 83.573> -266 35<192.239 274.992> 0 26<223.924 354.351> 363 31<25.1272 99.6086> 369 50<226.234 346.219>
VStem: 107 67<-226.577 28 54.1008 351.387> 148 37<421.165 473.874> 444 57<116.917 264.22>
LayerCount: 2
Fore
SplineSet
313 419 m 0x2b
 413 419 501 358 501 220 c 0
 501 105 433 0 292 0 c 0
 225 0 176 28 176 28 c 1
 177 -188 l 6
 177 -207 178 -218 192 -227 c 4
 197 -230 209 -231 222 -231 c 6
 246 -231 l 6
 264 -231 275 -233 275 -249 c 4
 275 -263 268 -266 247 -266 c 4
 226 -266 178 -264 148 -264 c 4x6b
 124 -264 58 -270 49 -270 c 4
 23 -270 23 -264 23 -255 c 4
 23 -244 33 -239 46 -238 c 4
 59 -237 75 -236 84 -234 c 4
 95 -231 98 -225 101 -201 c 4
 104 -176 107 -108 107 -12 c 0
 107 99 103 334 103 334 c 2
 103 362 78 363 56 363 c 2
 48 363 l 2
 35 363 25 366 25 376 c 0
 25 391 36 394 51 394 c 2
 60 394 l 2xb5
 106 394 134 414 148 452 c 0
 152 463 154 474 169 474 c 0
 176 474 185 471 185 461 c 0
 185 440 173 424 171 382 c 0
 171 373 174 368 178 368 c 0
 183 368 190 373 199 380 c 0
 235 408 274 419 313 419 c 0x2b
268 369 m 0
 214 369 172 347 172 316 c 2
 174 94 l 2x2d
 175 46 245 26 289 26 c 0
 374 26 444 80 444 169 c 0
 444 283 363 369 268 369 c 0
EndSplineSet
Validated: 1
EndChar

StartChar: q
Encoding: 113 113 16
Width: 475
VWidth: 0
Flags: W
HStem: -259 34<258.004 329.923 418.289 497.87> -10 54<171.613 296.768> 373 36<164.552 284.261>
VStem: 16 71<124.956 289.775> 333 76<-219.717 28 46.1701 329.401>
LayerCount: 2
Fore
SplineSet
407 -195 m 2
 407 -206 408 -214 418 -220 c 0
 424 -224 441 -224 456 -224 c 0
 478 -224 498 -225 498 -244 c 0
 498 -258 496 -260 475 -260 c 0
 454 -260 401 -256 371 -256 c 0
 347 -256 294 -259 285 -259 c 0
 259 -259 258 -251 258 -242 c 0
 258 -236 263 -226 276 -225 c 0
 289 -224 306 -225 315 -223 c 0
 326 -220 331 -217 331 -193 c 2
 332 28 l 1
 332 28 260 -10 214 -10 c 0
 96 -10 16 83 16 188 c 0
 16 320 107 409 239 409 c 0
 259 409 282 406 302 399 c 0
 324 392 358 371 364 371 c 0
 366 371 373 372 374 372 c 0
 384 372 379 419 404 419 c 0
 412 419 416 410 416 403 c 0
 414 356 410 302 409 183 c 2
 407 -195 l 2
267 44 m 2
 292 44 l 2
 313 44 333 47 333 87 c 2
 333 270 l 2
 333 323 284 373 229 373 c 0
 159 373 87 314 87 213 c 0
 87 100 168 44 267 44 c 2
EndSplineSet
Validated: 1
EndChar

StartChar: r
Encoding: 114 114 17
Width: 371
VWidth: 0
Flags: W
HStem: -2 36<172.128 262.988> -2 29<37.049 96.854> 350 61<231.22 311.5>
VStem: 101 70<35.8758 326.212>
LayerCount: 2
Fore
SplineSet
160 435 m 0x70
 167 435 173 430 173 423 c 0
 173 419 165 372 165 366 c 0
 165 354 169 349 174 349 c 0
 180 349 189 355 199 364 c 0
 220 384 255 411 303 411 c 0
 320 411 357 400 357 368 c 0
 357 329 325 321 312 321 c 0
 284 321 258 350 242 350 c 0
 222 350 204 338 191 327 c 0
 171 310 170 305 170 283 c 0
 170 235 168 185 168 135 c 0
 168 108 168 82 171 57 c 0
 174 35 188 37 206 34 c 0
 214 33 241 31 241 31 c 2
 259 29 263 29 263 15 c 0
 263 5 259 -2 241 -2 c 0xb0
 228 -2 173 2 148 2 c 0
 117 2 76 -2 56 -2 c 0
 42 -2 36 -2 36 6 c 0
 36 23 51 25 68 27 c 0
 100 30 100 38 101 83 c 2
 103 308 l 2
 103 323 76 328 57 331 c 0
 48 333 42 332 42 343 c 0
 42 354 45 357 62 361 c 0
 79 366 93 372 103 379 c 0
 121 392 132 408 149 428 c 0
 153 433 156 435 160 435 c 0x70
EndSplineSet
Validated: 1
EndChar

StartChar: s
Encoding: 115 115 18
Width: 351
VWidth: 0
Flags: W
HStem: -10 28<121.565 221.871> 386 26<123.786 217.212>
VStem: 47 24<78.5122 122.955> 49 51<283.188 363.577> 256 59<51.1738 131.907> 256 31<307.013 353.516>
LayerCount: 2
Fore
SplineSet
100 329 m 0xd4
 100 233 315 230 315 114 c 0
 315 71 286 28 236 5 c 0
 214 -5 188 -10 159 -10 c 0
 122 -10 92 -3 72 4 c 0
 50 12 47 18 47 30 c 0
 47 44 48 54 48 69 c 2
 47 110 l 2
 47 112 48 123 60 123 c 0
 66 123 69 116 71 111 c 0
 78 93 83 72 94 57 c 0
 111 34 135 18 176 18 c 0
 207 18 234 35 247 59 c 0
 253 70 256 80 256 90 c 0xe8
 256 115 237 135 212 152 c 0
 156 191 49 216 49 302 c 0
 49 353 92 412 179 412 c 0
 223 412 250 403 270 393 c 0
 286 385 287 376 287 364 c 2
 287 320 l 2
 287 309 280 307 271 307 c 0
 263 307 259 325 256 330 c 0
 238 365 211 386 168 386 c 0
 128 386 100 364 100 329 c 0xd4
EndSplineSet
Validated: 1
EndChar

StartChar: t
Encoding: 116 116 19
Width: 319
VWidth: 0
Flags: W
HStem: -18 47<176.109 271.764> 344 55<208.444 315.104> 345 45<171.004 269.556>
VStem: 91 73<38.7938 317.166> 103 64<99.4954 339.818>
LayerCount: 2
Fore
SplineSet
166 467 m 0xa8
 176 467 180 461 180 452 c 0
 180 441 172 420 170 406 c 0
 167 391 167 388 184 390 c 2xa8
 294 399 l 1
 296 399 l 2
 312 399 316 387 316 378 c 0
 316 350 306 344 284 344 c 2
 282 344 l 1xc8
 180 345 l 2
 167 345 167 344 167 333 c 0xa8
 166 264 164 186 164 120 c 0
 164 58 174 29 220 29 c 0
 229 29 270 38 292 59 c 0
 296 63 301 65 305 65 c 0
 311 65 316 61 316 54 c 0
 316 16 242 -18 187 -18 c 0
 111 -18 91 32 91 96 c 0xb0
 91 170 103 281 103 319 c 0
 103 331 103 340 89 340 c 0
 82 340 66 339 58 339 c 0
 49 339 43 340 43 349 c 0
 43 358 48 364 58 369 c 0
 94 387 129 408 145 446 c 0
 149 455 154 467 166 467 c 0xa8
EndSplineSet
Validated: 1
EndChar

StartChar: u
Encoding: 117 117 20
Width: 513
VWidth: 0
Flags: W
HStem: -15 21G<353 362> -4 46<182.869 292.872> 367 27<28.1629 86.7656>
VStem: 88 70<66.9685 349.716> 90 80<168.996 382> 348 70<44.3249 49 67.2342 361.424>
LayerCount: 2
Fore
SplineSet
423 341 m 0x74
 418 297 417 244 417 194 c 0
 417 144 418 99 418 71 c 0
 418 45 433 44 449 44 c 0
 461 44 471 46 483 47 c 0
 492 48 497 43 497 33 c 0
 497 14 462 16 396 -3 c 0
 386 -6 367 -15 357 -15 c 0xb4
 349 -15 348 -6 348 2 c 2
 348 49 l 1
 293 18 l 2
 272 6 238 -4 208 -4 c 0
 96 -4 88 70 88 154 c 0x74
 88 215 90 276 90 337 c 0
 90 366 71 367 54 367 c 2
 49 367 l 2
 38 367 28 368 28 378 c 0
 28 392 37 394 51 394 c 0
 80 395 120 395 145 395 c 0
 167 395 170 388 170 376 c 0x6c
 170 365 158 244 158 178 c 0
 158 102 165 42 238 42 c 0
 273 42 348 67 348 92 c 2
 349 324 l 2
 349 394 258 344 258 380 c 0
 258 392 265 395 276 395 c 0
 288 395 345 394 356 394 c 0
 370 394 398 396 408 396 c 0
 421 396 424 394 424 376 c 0
 424 366 423 345 423 341 c 0x74
EndSplineSet
Validated: 1
EndChar

StartChar: v
Encoding: 118 118 21
Width: 511
VWidth: 0
Flags: W
HStem: -13 21G<252.5 261> 357 43<409.119 485.006>
DStem2: 276 99 283 24 0.379009 0.925393<0 255.827>
LayerCount: 2
Fore
SplineSet
256 -13 m 0
 249 -13 241 -3 234 14 c 0
 225 35 214 65 204 86 c 2
 102 310 l 2
 86 345 80 352 65 359 c 0
 46 368 22 372 22 386 c 0
 22 394 28 399 37 399 c 0
 59 399 87 397 127 397 c 0
 151 397 194 398 218 398 c 0
 230 398 240 393 240 381 c 0
 240 355 176 373 176 346 c 0
 176 328 225 212 276 99 c 1
 304 161 316 201 334 258 c 0
 345 292 357 328 357 343 c 0
 357 375 294 354 294 379 c 0
 294 396 312 399 330 399 c 0
 353 399 375 397 398 397 c 0
 422 397 449 400 472 400 c 0
 482 400 486 393 486 384 c 0
 486 361 447 370 427 357 c 0
 412 347 400 321 392 297 c 0
 360 208 318 108 283 24 c 0
 271 -6 266 -13 256 -13 c 0
EndSplineSet
Validated: 1
EndChar

StartChar: w
Encoding: 119 119 22
Width: 787
VWidth: 0
Flags: W
HStem: -10 21G<242.5 257 533 543> 359 37<693.123 769.525> 374 29<22.0175 80.4636>
VStem: 306 150<334.5 391.125>
DStem2: 272 89 282 35 0.376102 0.926578<0 246.2> 560 91 565 27 0.388692 0.921368<0 265.291>
LayerCount: 2
Fore
SplineSet
247 386 m 0xb0
 247 360 174 378 174 343 c 0
 174 318 221 202 272 89 c 1
 303 152 345 278 368 341 c 1
 366 348 363 351 361 353 c 0
 342 380 306 365 306 385 c 0
 306 397.25 316.71875 398.015625 324.087890625 398.015625 c 0
 357.210222462 398.015625 388.982115075 396 423 396 c 0
 451 396 481 397 505 397 c 0
 515 397 524 392 524 386 c 0
 524 354 456 382 456 349 c 0
 456 320 525 170 560 91 c 1
 589 156 606 201 624 258 c 0
 635 292 650 330 650 345 c 0
 650 377 584 364 584 384 c 0
 584 394 595 397 605 397 c 0
 631 397 656 395 683 395 c 0
 707 395 730 396 753 396 c 0
 763 396 772 394 772 385 c 0
 772 362 727 372 707 359 c 0xd0
 692 349 684 315 674 292 c 0
 636 200 606 112 565 27 c 0
 551 -2 548 -10 538 -10 c 0
 528 -10 523 -1 511 28 c 0
 482 102 417 232 392 306 c 1
 282 35 l 2
 267 -2 264 -13 250 -13 c 0
 235 -13 229 7 218 36 c 0
 212 51 202 73 197 86 c 2
 96 328 l 2
 81 363 76 369 62 374 c 0
 42 381 22 374 22 388 c 0
 22 396 28 403 37 403 c 0
 59 403 113 398 153 398 c 0
 177 398 200 399 224 399 c 0
 233 399 247 398 247 386 c 0xb0
EndSplineSet
Validated: 1
EndChar

StartChar: x
Encoding: 120 120 23
Width: 527
VWidth: 0
Flags: WO
HStem: -2 32<29.3378 93.71 421.126 479.676> 371 31<40.0095 109.999 417.004 487.465>
VStem: 228 70<182.188 223.812>
DStem2: 134 66 186 70 0.606673 0.794951<5.90191 143.482 231.771 363.06> 276 249 214 215 0.581623 -0.813459<-128.425 -0.247141 62.3931 194.197>
LayerCount: 2
Fore
SplineSet
214 215 m 2
 110 356 l 2
 107 360 91 371 73 371 c 0
 43 372 40 380 40 386 c 0
 40 397 44 402 56 402 c 0
 78 402 95 401 135 401 c 0
 159 401 202 402 226 402 c 0
 238 402 248 395 248 389 c 0
 248 367 207 379 207 358 c 0
 207 349 231 306 276 249 c 1
 304 280 319 304 337 332 c 0
 348 349 349 351 349 359 c 0
 349 375 311 368 311 392 c 0
 311 400 318 404 336 404 c 0
 359 404 380 402 403 402 c 0
 427 402 443 404 466 404 c 0
 476 404 488 404 488 391 c 0
 488 369 458 372 438 366 c 0
 423 361 417 356 406 347 c 0
 374 320 344 283 310 240 c 0
 301 229 298 222 298 216 c 0
 298 207 305 200 312 191 c 2
 418 50 l 2
 432 30 437 33 452 29 c 0
 471 25 480 28 480 9 c 0
 480 -2 465 -4 456 -4 c 0
 434 -4 406 0 366 0 c 2
 302 0 l 2
 290 0 280 2 280 12 c 0
 280 43 324 16 324 44 c 0
 324 55 272 132 253 156 c 1
 225 125 204 98 186 70 c 0
 175 53 176 49 176 41 c 0
 176 18 228 40 228 11 c 0
 228 0 208 -1 190 -1 c 0
 167 -1 145 0 122 0 c 0
 98 0 71 -2 48 -2 c 0
 38 -2 29 5 29 9 c 0
 29 30 42 29 62 30 c 0
 70 30 88 32 94 34 c 0
 109 39 124 55 134 66 c 0
 177 114 185 123 218 166 c 0
 224 173 228 179 228 186 c 0
 228 193 224 201 214 215 c 2
EndSplineSet
Validated: 1
EndChar

StartChar: y
Encoding: 121 121 24
Width: 534
VWidth: 0
Flags: W
HStem: -242 73<56.603 141.336> 373 26<31.4863 94.7798 432.765 504.478>
LayerCount: 2
Fore
SplineSet
242 386 m 0
 242 363 186 387 186 352 c 0
 186 330 231 209 277 106 c 1
 303 160 380 343 380 359 c 0
 380 384 312 365 312 388 c 0
 312 400 325 403 332 403 c 0
 346 403 396 399 412 399 c 0
 440 399 462 402 486 402 c 0
 496 402 505 398 505 392 c 0
 505 379 499 373 489 373 c 0
 446 373 427 368 408 324 c 0
 336 160 283 24 196 -137 c 0
 174 -177 146 -242 93 -242 c 0
 66 -242 52 -221 52 -202 c 0
 52 -185 64 -169 87 -169 c 0
 107 -169 112 -173 124 -173 c 0
 138 -173 142 -167 148 -158 c 0
 186 -98 230 -2 230 4 c 0
 230 7 205 73 198 92 c 2
 111 330 l 2
 98 366 86 371 62 373 c 0
 43 375 31 376 31 390 c 0
 31 398 42 399 49 399 c 0
 71 399 113 398 153 398 c 0
 177 398 200 400 224 400 c 0
 233 400 242 398 242 386 c 0
EndSplineSet
Validated: 1
EndChar

StartChar: z
Encoding: 122 122 25
Width: 421
VWidth: 0
Flags: W
HStem: 0 45<166 320.828> 0 36<132 251> 365 37<112.794 271> 369 42<189.111 271>
VStem: 80 32<403.371 463.696> 353 25<116.039 145.817>
DStem2: 39 27 132 36 0.561383 0.827556<59.6566 413.265>
LayerCount: 2
Fore
SplineSet
360 0 m 2x4c
 78 0 l 2
 47 0 35 6 35 16 c 0
 35 19 36 23 39 27 c 2
 271 369 l 1x5c
 171 365 l 2
 103 362 90 353 70 302 c 0
 67 295 59 292 54 292 c 0
 42 292 39 299 39 308 c 0
 39 329 61 382 64 394 c 0
 68 409 75 426 80 443 c 0
 84 456 92 464 98 464 c 0
 109 464 112 460 112 449 c 2
 112 417 l 2
 112 409 118 402 140 402 c 2x2c
 361 411 l 2
 376 411 381 405 381 398 c 0
 381 389 373 375 366 367 c 0
 335 328 132 36 132 36 c 1x5c
 285 45 l 2x8c
 317 47 319 61 332 95 c 0
 339 112 346 131 353 142 c 0
 355 145 361 146 364 146 c 0
 370 146 378 139 378 127 c 0
 378 105 372 73 372 65 c 2
 372 24 l 2
 372 4 368 0 360 0 c 2x4c
EndSplineSet
Validated: 1
EndChar

StartChar: comma
Encoding: 44 44 53
Width: 306
VWidth: 0
Flags: W
HStem: -174 28<102.887 141.635> -9 80<113.625 185.535>
VStem: 190 54<-99.9459 -13.964>
LayerCount: 2
Fore
SplineSet
142 -9 m 0
 117 -9 104 3 104 22 c 0
 104 51 131 71 162 71 c 0
 205 71 244 30 244 -28 c 0
 244 -114 159 -174 112 -174 c 0
 106 -174 102 -170 102 -164 c 0
 102 -154 115 -151 124 -146 c 0
 157 -128 190 -87 190 -48 c 0
 190 -22 175 -9 142 -9 c 0
EndSplineSet
Validated: 1
EndChar

StartChar: period
Encoding: 46 46 54
Width: 298
VWidth: 0
Flags: W
HStem: -17 92<114.347 191.653>
VStem: 107 92<-9.65255 67.6526>
LayerCount: 2
Fore
SplineSet
107 29 m 0
 107 54 128 75 153 75 c 0
 178 75 199 54 199 29 c 0
 199 4 178 -17 153 -17 c 0
 128 -17 107 4 107 29 c 0
EndSplineSet
Validated: 1
EndChar
